<svg width="22" height="22" viewBox="0 0 22 22" fill="none" xmlns="http://www.w3.org/2000/svg">
<path fill-rule="evenodd" clip-rule="evenodd" d="M5.94749 2.95702L5.79349 4.03491C5.75536 4.30175 5.52682 4.49996 5.25726 4.49996H1.24996C0.651627 4.49996 0.166626 4.98499 0.166626 5.58329C0.166626 6.18159 0.651627 6.66663 1.24996 6.66663H20.75C21.3483 6.66663 21.8333 6.18159 21.8333 5.58329C21.8333 4.98499 21.3483 4.49996 20.75 4.49996H16.7427C16.4731 4.49996 16.2446 4.30175 16.2064 4.03491L16.0524 2.95702C15.8237 1.35589 14.4525 0.166626 12.8351 0.166626H9.16483C7.54743 0.166626 6.1762 1.35589 5.94749 2.95702ZM13.4596 4.49996C13.7893 4.49996 14.0425 4.208 13.9959 3.88168L13.9075 3.26342C13.8313 2.72972 13.3742 2.33329 12.8351 2.33329H9.16483C8.62567 2.33329 8.16857 2.72972 8.09234 3.26342L8.00403 3.88171C7.95742 4.20802 8.21063 4.49996 8.54025 4.49996H13.4596Z" fill="currentColor" fill-opacity="0.5"/>
<path fill-rule="evenodd" clip-rule="evenodd" d="M19.563 8.92816C19.6187 8.29486 19.1196 7.74996 18.4839 7.74996H3.51604C2.88029 7.74996 2.3812 8.29486 2.43687 8.92817L3.39758 19.8564C3.49597 20.9751 4.43285 21.8333 5.55592 21.8333H16.444C17.5671 21.8333 18.5039 20.9751 18.6023 19.8564L19.563 8.92816ZM13.1666 18.5833C12.5683 18.5833 12.0833 18.0983 12.0833 17.5V11C12.0833 10.4017 12.5683 9.91663 13.1666 9.91663C13.765 9.91663 14.25 10.4017 14.25 11V17.5C14.25 18.0983 13.765 18.5833 13.1666 18.5833ZM7.74996 17.5C7.74996 18.0983 8.23496 18.5833 8.83329 18.5833C9.43163 18.5833 9.91663 18.0983 9.91663 17.5V11C9.91663 10.4017 9.43163 9.91663 8.83329 9.91663C8.23496 9.91663 7.74996 10.4017 7.74996 11V17.5Z" fill="currentColor" fill-opacity="0.5"/>
</svg>
