<svg width="24" height="24" viewBox="0 0 24 24" fill="none" xmlns="http://www.w3.org/2000/svg">
  <path
    d="M3.70711 2.29289C3.31658 1.90237 2.68342 1.90237 2.29289 2.29289C1.90237 2.68342 1.90237 3.31658 2.29289 3.70711L20.2929 21.7071C20.6834 22.0976 21.3166 22.0976 21.7071 21.7071C22.0976 21.3166 22.0976 20.6834 21.7071 20.2929L16.359 14.9448L18.6831 12.7448C19.3303 12.1322 18.9199 10.9997 18.0507 10.9997H14.9887C14.6764 10.9997 14.4495 10.6861 14.5317 10.3679L16.3656 3.26817C16.6141 2.30614 15.5223 1.59451 14.8191 2.26016L9.09395 7.67973L3.70711 2.29289Z"
    fill="currentColor" />
  <path
    d="M6.20257 10.4168L5.31687 11.2552C4.66972 11.8678 5.08014 13.0003 5.94931 13.0003H8.7861L6.20257 10.4168Z"
    fill="currentColor" />
  <path
    d="M7.63442 20.7318L9.45795 13.6722L13.4677 17.6819L9.18088 21.7398C8.47769 22.4055 7.38593 21.6939 7.63442 20.7318Z"
    fill="currentColor" />
</svg>