<svg width="24" height="24" viewBox="0 0 24 24" fill="none" xmlns="http://www.w3.org/2000/svg">
<path d="M16.7071 10.2592C17.0976 9.85672 17.0976 9.20425 16.7071 8.80182C16.3166 8.39939 15.6834 8.39939 15.2929 8.80182L11 13.2256L8.70711 10.8628C8.31658 10.4604 7.68342 10.4604 7.29289 10.8628C6.90237 11.2652 6.90237 11.9177 7.29289 12.3201L9.93934 15.0473C10.5251 15.6509 11.4749 15.6509 12.0607 15.0473L16.7071 10.2592Z" fill="currentColor"/>
<path fill-rule="evenodd" clip-rule="evenodd" d="M12 22C17.5228 22 22 17.5228 22 12C22 6.47715 17.5228 2 12 2C6.47715 2 2 6.47715 2 12C2 17.5228 6.47715 22 12 22ZM12 20C16.4183 20 20 16.4183 20 12C20 7.58172 16.4183 4 12 4C7.58172 4 4 7.58172 4 12C4 16.4183 7.58172 20 12 20Z" fill="currentColor"/>
</svg>
