<svg width="24" height="24" viewBox="0 0 24 24" fill="none" xmlns="http://www.w3.org/2000/svg">
<path fill-rule="evenodd" clip-rule="evenodd" d="M13 8C13 10.2091 11.2091 12 9 12C6.79086 12 5 10.2091 5 8C5 5.79086 6.79086 4 9 4C11.2091 4 13 5.79086 13 8ZM11 8C11 9.10457 10.1046 10 9 10C7.89543 10 7 9.10457 7 8C7 6.89543 7.89543 6 9 6C10.1046 6 11 6.89543 11 8Z" fill="currentColor"/>
<path fill-rule="evenodd" clip-rule="evenodd" d="M14 8C14 9.65685 15.3431 11 17 11C18.6569 11 20 9.65685 20 8C20 6.34315 18.6569 5 17 5C15.3431 5 14 6.34315 14 8ZM16 8C16 8.55229 16.4477 9 17 9C17.5523 9 18 8.55229 18 8C18 7.44772 17.5523 7 17 7C16.4477 7 16 7.44772 16 8Z" fill="currentColor"/>
<path fill-rule="evenodd" clip-rule="evenodd" d="M15.7492 17C15.9142 17.4666 16 17.9521 16 18.4444C16 19.3036 15.3036 20 14.4444 20H3.55556C2.69645 20 2 19.3036 2 18.4444C2 17.0005 2.7375 15.6157 4.05025 14.5946C5.36301 13.5736 7.14349 13 9 13C10.3369 13 11.6343 13.2974 12.7461 13.8452C12.948 13.591 13.1884 13.3537 13.4645 13.139C14.4022 12.4097 15.6739 12 17 12C18.3261 12 19.5979 12.4097 20.5355 13.139C21.4732 13.8683 22 14.8575 22 15.8889C22 16.5025 21.5025 17 20.8889 17H15.7492ZM13.6194 16.8519C13.7649 17.0627 13.8695 17.2823 13.9318 17.5062C14.0058 17.7723 13.7761 18 13.5 18H4.5C4.22386 18 3.9942 17.7723 4.06819 17.5062C4.13048 17.2823 4.23509 17.0627 4.3806 16.8519C4.63188 16.488 5.00017 16.1573 5.46447 15.8787C5.92876 15.6001 6.47995 15.3791 7.08658 15.2284C7.69321 15.0776 8.34339 15 9 15C9.65661 15 10.3068 15.0776 10.9134 15.2284C11.3061 15.326 11.6756 15.453 12.0132 15.606C12.0179 15.6081 12.0226 15.6102 12.0272 15.6123C12.2061 15.694 12.3759 15.7829 12.5355 15.8787C12.5646 15.8961 12.5932 15.9137 12.6215 15.9315C13.0454 16.1987 13.3838 16.5107 13.6194 16.8519ZM14.4211 15H19.75C19.8881 15 19.9562 14.8946 19.8465 14.8109C19.4274 14.491 18.2137 14 17 14C15.8159 14 14.6318 14.4674 14.1856 14.7872C14.2666 14.8567 14.3451 14.9277 14.4211 15Z" fill="currentColor"/>
</svg>
